<svg id="kenny" mlns="http://www.w3.org/2000/svg" viewBox="0 0 800 600">
  <g fill="#fffffb" fill-rule="evenodd">
    <path d="M475.618 365.693c-16.476-92.896 2.207-338.355 206.53-307.495 95.123 12.34 130.494 205.998 26.914 318.076-42.735 46.24-217.166 49.298-233.444-10.58zM374.922 406.294c-3.786 17.478 25.85 39.754 36.024 39.754s39.937-22.305 36.024-39.754c-2.902-12.944-23.59-15.353-36.757-15.255-12.715.093-32.58 2.73-35.29 15.254z"/>
    <path stroke="#000" stroke-width=".782" d="M233.643 472.75c-36.2-41.006-62.996 9.14-62.996 9.14s-46.216-46.044-67.265 4.366c-21.624 51.79 78.96 97.44 78.96 97.44s86.644-70.912 51.3-110.946z"/>
    <path d="M346.294 365.693c16.476-92.896-2.207-338.355-206.53-307.495C44.643 70.538 9.27 264.196 112.852 376.274c42.735 46.24 217.166 49.298 233.444-10.58z"/>
  </g>
</svg>
