<svg xmlns="http://www.w3.org/2000/svg" viewBox="0 0 1000 1000">
  <circle cx="505.71429" cy="243.79082" r="500" transform="translate(-5.714 256.21)"/>
  <path d="M447.73633 2.7382812A500 500 0 0 0 345.49219 24.472656L500 500 447.73633 2.7382812zM500 500L654.50781 24.472656A500 500 0 0 0 552.26367 2.7382812L500 500zm0 0l334.56445-371.57227A500 500 0 0 0 750 66.988281L500 500zm0 0l456.77344-203.36914a500 500 0 0 0-52.26563-90.52344L500 500zm0 0h500a500 500 0 0 0-10.92578-103.95508L500 500zm0 0l456.77344 203.36914a500 500 0 0 0 32.30078-99.41406L500 500zm0 0l334.56445 371.57227a500 500 0 0 0 69.94336-77.67969L500 500zm0 0l154.50781 475.5293A500 500 0 0 0 750 933.01367L500 500zm0 0l-52.26367 497.26172a500 500 0 0 0 104.52734 0L500 500zm0 0L250 933.01367a500 500 0 0 0 95.49219 42.51563L500 500zm0 0L95.492188 793.89258a500 500 0 0 0 69.943362 77.67969L500 500zm0 0L10.925781 603.95508a500 500 0 0 0 32.300781 99.41406L500 500zm0 0L10.925781 396.04492A500 500 0 0 0 0 500h500zm0 0L95.492188 206.10742a500 500 0 0 0-52.265626 90.52539L500 500zm0 0L250 66.988281a500 500 0 0 0-84.56445 61.439449L500 500z" fill="#fff"/>
</svg>
