<svg xmlns="http://www.w3.org/2000/svg" viewBox="0 0 450 450"><g fill="none" fill-rule="evenodd" fill-opacity="0"><path d="M325 0v225l-47.06 52.94-105.88-105.88z"/><path d="M125 450l152.94-172.06-105.88-105.88L125 225z"/><path d="M125 125l47.06 47.06L125 225zM325 225v100l-47.06-47.06z"/><path d="M0 0l172.06 172.06L325 0zM125 450h325L277.94 277.94z"/><path d="M0 0l125 125v325H0zM325 0h125v450L325 325z"/></g><path d="M1 1h448v448H1z" fill="none" stroke="#fff" stroke-width="4"/><g fill="none" fill-rule="evenodd" stroke="#fff"><path d="M0 0l325 325V0L125 225"/><path d="M450 450L125 125v325l200-225"/></g><g fill="none" fill-rule="evenodd" stroke="#fff" stroke-width="3"><path d="M277.94 277.94L325 225V0M172.06 172.06L125 225v225M125 125l200 200"/></g></svg>